<svg width="64" height="64" viewBox="0 0 64 64" fill="none" xmlns="http://www.w3.org/2000/svg">
<rect width="64" height="64" fill="url(#paint0_linear_285_78)"/>
<g style="mix-blend-mode:plus-lighter">
<rect x="53" y="8" width="6" height="50" fill="#AAAAAA"/>
</g>
<g style="mix-blend-mode:plus-lighter">
<rect x="41" y="18" width="6" height="40" fill="#AAAAAA"/>
</g>
<g style="mix-blend-mode:plus-lighter">
<rect x="29" y="28" width="6" height="30" fill="#AAAAAA"/>
</g>
<g style="mix-blend-mode:plus-lighter">
<rect x="17" y="38" width="6" height="20" fill="#AAAAAA"/>
</g>
<g style="mix-blend-mode:plus-lighter">
<rect x="5" y="48" width="6" height="10" fill="#AAAAAA"/>
</g>
<g style="mix-blend-mode:plus-lighter">
<path d="M11.18 12.524C11.204 12.58 11.216 12.632 11.216 12.68C11.216 12.784 11.176 12.872 11.096 12.944C11.016 13.008 10.92 13.048 10.808 13.064L10.16 13.124C10.064 13.132 9.976 13.108 9.896 13.052C9.824 12.996 9.776 12.92 9.752 12.824C9.632 12.424 9.448 12.1 9.2 11.852C8.96 11.604 8.668 11.48 8.324 11.48C8.06 11.48 7.82 11.592 7.604 11.816C7.388 12.04 7.216 12.34 7.088 12.716C6.96 13.092 6.896 13.504 6.896 13.952C6.896 14.72 7.032 15.32 7.304 15.752C7.576 16.184 7.972 16.4 8.492 16.4C8.844 16.4 9.128 16.268 9.344 16.004C9.56 15.74 9.72 15.364 9.824 14.876C9.88 14.644 10.02 14.536 10.244 14.552L10.928 14.612C11.04 14.62 11.132 14.66 11.204 14.732C11.284 14.804 11.324 14.892 11.324 14.996C11.324 15.028 11.316 15.068 11.3 15.116C11.124 15.716 10.792 16.2 10.304 16.568C9.816 16.936 9.212 17.12 8.492 17.12C7.5 17.12 6.728 16.836 6.176 16.268C5.632 15.692 5.36 14.92 5.36 13.952C5.36 13.344 5.484 12.8 5.732 12.32C5.988 11.84 6.336 11.46 6.776 11.18C7.224 10.9 7.74 10.76 8.324 10.76C8.764 10.76 9.172 10.84 9.548 11C9.932 11.16 10.264 11.372 10.544 11.636C10.832 11.9 11.044 12.196 11.18 12.524ZM12.3964 8.288C12.3964 8.176 12.4484 8.08 12.5524 8C12.6644 7.92 12.7964 7.88 12.9484 7.88H13.3444C13.4964 7.88 13.6244 7.92 13.7284 8C13.8324 8.08 13.8844 8.176 13.8844 8.288V16.712C13.8844 16.824 13.8324 16.92 13.7284 17C13.6244 17.08 13.4964 17.12 13.3444 17.12H12.9484C12.7964 17.12 12.6644 17.08 12.5524 17C12.4484 16.92 12.3964 16.824 12.3964 16.712V8.288ZM17.2977 17.12C16.7857 17.12 16.3497 16.988 15.9897 16.724C15.6377 16.452 15.3657 16.08 15.1737 15.608C14.9897 15.136 14.8977 14.596 14.8977 13.988C14.8977 13.388 15.0057 12.844 15.2217 12.356C15.4457 11.868 15.7537 11.48 16.1457 11.192C16.5377 10.904 16.9977 10.76 17.5257 10.76C18.2137 10.76 18.7857 10.908 19.2417 11.204C19.6977 11.492 20.0377 11.868 20.2617 12.332C20.4857 12.796 20.5977 13.288 20.5977 13.808C20.5977 13.84 20.5977 13.872 20.5977 13.904C20.6537 14.44 20.7177 14.928 20.7897 15.368C20.8617 15.8 20.9337 16.16 21.0057 16.448C21.0137 16.472 21.0177 16.504 21.0177 16.544C21.0177 16.784 20.8937 16.924 20.6457 16.964L19.9617 17.048C19.7377 17.072 19.5977 16.98 19.5417 16.772C19.5097 16.644 19.4817 16.512 19.4577 16.376C19.1857 16.608 18.8697 16.792 18.5097 16.928C18.1497 17.056 17.7457 17.12 17.2977 17.12ZM17.2977 16.4C17.6897 16.4 18.0137 16.272 18.2697 16.016C18.5257 15.752 18.7177 15.42 18.8457 15.02C18.9817 14.62 19.0497 14.208 19.0497 13.784C19.0497 13.776 19.0497 13.76 19.0497 13.736C19.0417 13.696 19.0377 13.652 19.0377 13.604C19.0377 13.564 19.0377 13.528 19.0377 13.496C19.0137 13.144 18.9417 12.816 18.8217 12.512C18.7017 12.2 18.5337 11.952 18.3177 11.768C18.1017 11.576 17.8377 11.48 17.5257 11.48C17.3577 11.48 17.1897 11.604 17.0217 11.852C16.8537 12.092 16.7137 12.404 16.6017 12.788C16.4897 13.172 16.4337 13.572 16.4337 13.988C16.4337 14.404 16.4777 14.796 16.5657 15.164C16.6537 15.532 16.7657 15.832 16.9017 16.064C17.0377 16.288 17.1697 16.4 17.2977 16.4ZM30.1339 16.568C30.1339 16.696 30.0939 16.8 30.0139 16.88C29.9339 16.96 29.8379 17 29.7259 17H29.0059C28.8939 17 28.7979 16.96 28.7179 16.88C28.6379 16.792 28.5979 16.684 28.5979 16.556C28.5979 15.62 28.5899 14.844 28.5739 14.228C28.5659 13.604 28.5459 13.108 28.5139 12.74C28.4819 12.372 28.4339 12.1 28.3699 11.924C28.3139 11.74 28.2299 11.62 28.1179 11.564C28.0139 11.508 27.8819 11.48 27.7219 11.48C27.4259 11.48 27.1819 11.588 26.9899 11.804C26.7979 12.012 26.7019 12.352 26.7019 12.824V16.592C26.7019 16.792 26.6059 16.92 26.4139 16.976C26.4059 16.984 26.3979 16.988 26.3899 16.988C26.3739 16.988 26.3619 16.992 26.3539 17C26.3459 17 26.3459 17 26.3539 17C26.3379 17 26.3179 17 26.2939 17H25.6939C25.6859 17 25.6819 17 25.6819 17C25.6659 17 25.6539 17 25.6459 17C25.6299 17 25.6139 16.996 25.5979 16.988C25.5979 16.988 25.5939 16.988 25.5859 16.988C25.3859 16.94 25.2859 16.808 25.2859 16.592V16.556C25.2859 15.62 25.2739 14.844 25.2499 14.228C25.2339 13.604 25.2019 13.108 25.1539 12.74C25.1139 12.372 25.0579 12.1 24.9859 11.924C24.9139 11.74 24.8179 11.62 24.6979 11.564C24.5859 11.508 24.4499 11.48 24.2899 11.48C23.9939 11.48 23.7699 11.588 23.6179 11.804C23.4659 12.012 23.3899 12.352 23.3899 12.824V16.592C23.3899 16.704 23.3499 16.8 23.2699 16.88C23.1899 16.96 23.0939 17 22.9819 17H22.2619C22.1499 17 22.0539 16.96 21.9739 16.88C21.8939 16.8 21.8539 16.704 21.8539 16.592V11.168C21.8539 11.056 21.8939 10.96 21.9739 10.88C22.0539 10.8 22.1499 10.76 22.2619 10.76H22.9819C23.1099 10.76 23.2139 10.808 23.2939 10.904C23.5979 10.808 23.9299 10.76 24.2899 10.76C24.7139 10.76 25.0659 10.796 25.3459 10.868C25.6259 10.94 25.8539 11.072 26.0299 11.264C26.4699 10.928 27.0339 10.76 27.7219 10.76C28.2019 10.76 28.5899 10.812 28.8859 10.916C29.1899 11.012 29.4259 11.184 29.5939 11.432C29.7699 11.672 29.8939 12.012 29.9659 12.452C30.0379 12.892 30.0819 13.448 30.0979 14.12C30.1219 14.792 30.1339 15.608 30.1339 16.568ZM32.3913 18.992C32.3913 19.104 32.3513 19.2 32.2713 19.28C32.1913 19.36 32.0953 19.4 31.9833 19.4H31.4433C31.3313 19.4 31.2353 19.36 31.1553 19.28C31.0753 19.2 31.0353 19.104 31.0353 18.992V11.288C31.0353 11.176 31.0753 11.08 31.1553 11C31.2353 10.92 31.3313 10.88 31.4433 10.88H31.9833C32.1913 10.88 32.3233 10.98 32.3793 11.18C32.7713 10.9 33.3113 10.76 33.9993 10.76C34.5673 10.76 35.0713 10.904 35.5113 11.192C35.9593 11.472 36.3113 11.848 36.5673 12.32C36.8233 12.792 36.9513 13.312 36.9513 13.88C36.9513 14.448 36.8313 14.968 36.5913 15.44C36.3513 15.912 36.0153 16.292 35.5833 16.58C35.1593 16.86 34.6593 17 34.0833 17C33.7393 17 33.4233 16.952 33.1353 16.856C32.8553 16.752 32.6073 16.608 32.3913 16.424V18.992ZM34.0473 16.268C34.4313 16.268 34.7393 16.156 34.9713 15.932C35.2113 15.7 35.3833 15.4 35.4873 15.032C35.5993 14.664 35.6553 14.28 35.6553 13.88C35.6553 13.48 35.5833 13.096 35.4393 12.728C35.2953 12.36 35.0953 12.06 34.8393 11.828C34.5913 11.596 34.3113 11.48 33.9993 11.48C33.5513 11.48 33.1713 11.692 32.8593 12.116C32.5553 12.54 32.4033 13.148 32.4033 13.94C32.4033 14.38 32.4953 14.776 32.6793 15.128C32.8633 15.48 33.0833 15.76 33.3393 15.968C33.5953 16.168 33.8313 16.268 34.0473 16.268Z" fill="#AAAAAA"/>
</g>
<defs>
<linearGradient id="paint0_linear_285_78" x1="32" y1="64" x2="32" y2="0" gradientUnits="userSpaceOnUse">
<stop stop-color="#141B1F"/>
<stop offset="1" stop-color="#269DD9"/>
</linearGradient>
</defs>
</svg>
