<svg fill="none" xmlns="http://www.w3.org/2000/svg">
<symbol id="symbol" viewBox="0 0 64 64">
<path fill-rule="evenodd" clip-rule="evenodd" d="M59.7129 16L32 0L4.28723 16V48L32 64L59.7129 48V16ZM56.6337 17.7778L32 3.55556L7.36643 17.7778V46.2222L32 60.4444L56.6337 46.2222V17.7778Z" fill="currentColor"/>
<path d="M30.9334 18.1333V13.8667H13.8667V18.1333H30.9334Z" fill="currentColor"/>
<path d="M13.8667 20.2667V24.5333H20.2667V50.1333H24.5334V24.5333H30.9334V20.2667H13.8667Z" fill="currentColor"/>
<path d="M26.6667 50.1333H30.9334V26.6667H26.6667V50.1333Z" fill="currentColor"/>
<path fill-rule="evenodd" clip-rule="evenodd" d="M33.0667 50.1333H50.1334V33.0667H33.0667V50.1333ZM45.8667 45.8667V43.7333H43.7334V45.8667H45.8667ZM39.4667 45.8667V43.7333H37.3334V45.8667H39.4667ZM45.8667 39.4667H43.7334V37.3333H45.8667V39.4667ZM39.4667 39.4667V37.3333H37.3334V39.4667H39.4667Z" fill="currentColor"/>
<path fill-rule="evenodd" clip-rule="evenodd" d="M50.1334 30.9333V20.2667H33.0667V30.9333H50.1334ZM45.8667 24.5333H37.3334V26.6667H45.8667V24.5333Z" fill="currentColor"/>
<path d="M50.1334 18.1333V13.8667H33.0667V18.1333H50.1334Z" fill="currentColor"/>
<path d="M18.1334 50.1333V26.6667H13.8667V50.1333H18.1334Z" fill="currentColor"/>
</symbol>
</svg>
